<?xml version="1.0" encoding="utf-8"?>
<!-- Generator: Adobe Illustrator 25.0.1, SVG Export Plug-In . SVG Version: 6.00 Build 0)  -->
<svg version="1.1" id="Layer_1" xmlns="http://www.w3.org/2000/svg" xmlns:xlink="http://www.w3.org/1999/xlink" x="0px" y="0px"
	 viewBox="0 0 510.2 510.2" style="enable-background:new 0 0 510.2 510.2;" xml:space="preserve">
<style type="text/css">
	.st0{fill:#231F20;}
</style>
<path class="st0" d="M41.2,91.4h425.2c7.8,0,14.2-6.3,14.2-14.2S474.2,63,466.4,63H41.2C33.4,63,27,69.4,27,77.2
	S33.3,91.4,41.2,91.4z"/>
<path class="st0" d="M41.2,425.2h425.2c7.8,0,14.2-6.3,14.2-14.2c0-7.8-6.3-14.2-14.2-14.2H41.2c-7.8,0-14.2,6.3-14.2,14.2
	C27,418.9,33.3,425.2,41.2,425.2z"/>
<path class="st0" d="M41.2,258.3h425.2c7.8,0,14.2-6.3,14.2-14.2s-6.3-14.2-14.2-14.2H41.2c-7.8,0-14.2,6.3-14.2,14.2
	S33.3,258.3,41.2,258.3z"/>
</svg>
